<?xml version="1.0" standalone="no"?>
<!DOCTYPE svg PUBLIC "-//W3C//DTD SVG 20010904//EN"
 "http://www.w3.org/TR/2001/REC-SVG-20010904/DTD/svg10.dtd">
<svg version="1.0" xmlns="http://www.w3.org/2000/svg"
 width="1077.000000pt" height="1077.000000pt" viewBox="0 0 1077.000000 1077.000000"
 preserveAspectRatio="xMidYMid meet">
<metadata>
Created by potrace 1.14, written by Peter Selinger 2001-2017
</metadata>
<g transform="translate(0.000000,1077.000000) scale(0.100000,-0.100000)"
fill="#000000" stroke="none">
<path d="M0 5385 l0 -5385 5385 0 5385 0 0 5385 0 5385 -5385 0 -5385 0 0
-5385z m5673 3435 c149 -29 361 -120 492 -211 147 -101 285 -257 425 -477 67
-107 260 -448 263 -467 1 -6 -80 -11 -220 -12 -194 -2 -405 -19 -478 -38 -17
-5 -30 13 -89 120 -91 164 -141 232 -223 300 -273 226 -678 208 -928 -42 -79
-78 -53 -36 -522 -848 -287 -496 -729 -1262 -1523 -2635 -288 -498 -538 -936
-556 -975 -157 -340 -9 -752 329 -914 115 -56 192 -74 312 -73 123 1 193 19
314 78 77 38 108 60 175 128 72 74 96 108 221 327 788 1372 1783 3086 1831
3151 196 271 487 457 826 529 147 31 380 31 528 -1 275 -59 480 -170 681 -370
131 -130 169 -183 331 -465 63 -110 184 -319 268 -465 151 -260 228 -393 505
-875 456 -790 463 -803 506 -955 53 -182 66 -431 34 -615 -58 -330 -240 -632
-510 -845 -159 -126 -370 -216 -599 -256 -90 -15 -286 -20 -379 -8 -133 16
-332 76 -452 136 -173 86 -401 285 -502 438 -86 130 -817 1404 -818 1425 0 19
354 645 365 644 3 0 221 -374 485 -831 264 -458 498 -857 521 -887 128 -175
339 -281 558 -281 117 0 199 20 312 75 261 126 415 405 384 696 -10 95 -31
162 -83 264 -91 179 -1297 2250 -1339 2300 -137 163 -319 247 -533 247 -162 0
-295 -44 -430 -144 -119 -88 -3 104 -1395 -2313 -348 -605 -660 -1140 -694
-1190 -72 -108 -232 -270 -336 -341 -217 -149 -460 -231 -716 -241 -252 -11
-448 31 -669 140 -271 134 -463 328 -600 606 -103 208 -139 366 -139 606 0
180 16 282 65 423 56 160 -97 -111 1682 2972 484 839 907 1566 941 1615 147
218 413 420 664 504 218 74 500 94 715 51z"/>
</g>
</svg>
